<svg xmlns="http://www.w3.org/2000/svg" width="500" zoomAndPan="magnify" viewBox="0 0 375 375" height="500" preserveAspectRatio="xMidYMid meet" fill="#013d5a" xmlns:v="https://vecta.io/nano"><path d="M106.54 212.339c.477.375.742.844.797 1.406.063.563-.07 1.09-.391 1.578-.168.156-.777.813-1.828 1.969-1.043 1.156-2.465 2.555-4.266 4.188-1.793 1.637-3.871 3.246-6.234 4.828s-4.961 2.914-7.781 3.984c-2.812 1.074-5.75 1.609-8.812 1.609-4.023 0-7.75-1.02-11.187-3.062-3.012-1.926-5.156-4.523-6.437-7.797-.812-1.664-1.449-2.738-1.906-3.219-.449-.488-1.156-.656-2.125-.5-.699.117-1.762.75-3.187 1.906-1.418 1.148-2.934 2.594-4.547 4.344-1.605 1.742-2.945 3.555-4.016 5.438-.594.969-1.402 1.293-2.422.969-1.074-.32-1.586-1.051-1.531-2.187.156-3.488-.328-6.266-1.453-8.328s-2.227-3.176-3.297-3.344c-.594-.102-1.375-.035-2.344.203-.961.242-2.168.844-3.625 1.813-1.449.969-3.195 2.449-5.234 4.438-2.031 1.98-4.391 4.664-7.078 8.047-.695.855-1.555 1.043-2.578.563s-1.395-1.258-1.125-2.344l3.859-16.984c.117-.594.422-1.051.922-1.375.508-.32 1.035-.398 1.578-.234.594.105 1.051.414 1.375.922s.398 1.039.234 1.578l-.25 1.016-.516 2.328-.531 2.375c-.156.699-.234 1.102-.234 1.203-.055.324.039.512.281.563s.469-.023.688-.234c2.363-2.258 4.414-3.977 6.156-5.156 1.75-1.187 3.266-1.969 4.547-2.344 1.289-.375 2.406-.535 3.344-.484.945.055 1.77.164 2.469.328 1.656.75 3.063 1.852 4.219 3.297a10.16 10.16 0 0 1 2.141 4.922c.051.262.211.422.484.484.32.105.563.047.719-.172 1.719-1.926 3.531-3.641 5.438-5.141 1.906-1.508 3.531-2.375 4.875-2.594 1.719-.258 3.098-.094 4.141.5 1.051.586 1.91 1.387 2.578 2.406.676 1.023 1.254 2.043 1.734 3.063.969 2.523 2.551 4.531 4.75 6.031 2.789 1.617 5.566 2.449 8.328 2.5a21.5 21.5 0 0 0 8.016-1.359c2.582-.969 4.973-2.191 7.172-3.672s4.129-2.977 5.797-4.5c1.664-1.531 2.969-2.82 3.906-3.875s1.43-1.578 1.484-1.578c.32-.477.781-.742 1.375-.797s1.102.109 1.531.484zm0 0"/><path d="M170.311 213.23c.375.43.563.938.563 1.531a2.07 2.07 0 0 1-.734 1.438c-.156.168-.949.844-2.375 2.031-1.418 1.18-3.297 2.574-5.641 4.188-2.336 1.605-4.965 3.172-7.891 4.703-2.918 1.531-6 2.758-9.25 3.672-3.25.906-6.5 1.258-9.75 1.047-3.25-.219-6.352-1.297-9.297-3.234a16.2 16.2 0 0 1-5.391-5.641c-.387-.645-.98-.992-1.781-1.047a1.84 1.84 0 0 0-1.766.891c-1.187 1.773-2.48 3.449-3.875 5.031s-2.82 2.859-4.266 3.828-2.844 1.477-4.187 1.531h-.078a5.2 5.2 0 0 1-2.687-.922c-.832-.57-1.441-1.312-1.828-2.219-1.602-4.031-1.359-7.953.734-11.766 1.773-3.695 4.25-6.848 7.438-9.453a26.93 26.93 0 0 1 10.844-5.359c.801-.219 1.473-.031 2.016.563a2.07 2.07 0 0 1 .563 2.094c-.273.75-.809 1.234-1.609 1.453-3.387.805-6.422 2.293-9.109 4.469-2.68 2.18-4.773 4.852-6.281 8.016-1.5 2.574-1.766 5.258-.797 8.047.32.543.563.813.719.813.477.324 1.203-.008 2.172-1 .969-1 2.066-2.41 3.297-4.234 1.238-1.832 2.461-3.848 3.672-6.047s2.297-4.344 3.266-6.437c.426-.969 1.176-1.375 2.25-1.219 1.02.168 1.609.762 1.766 1.781 0 .055.109.578.328 1.578.219.992.594 2.211 1.125 3.656.539 1.449 1.281 2.914 2.219 4.391.938 1.469 2.129 2.688 3.578 3.656 2.469 1.668 5.141 2.543 8.016 2.625 2.875.074 5.758-.359 8.656-1.297a50.78 50.78 0 0 0 8.344-3.531c2.656-1.426 5.031-2.891 7.125-4.391 2.094-1.508 3.754-2.773 4.984-3.797l1.938-1.609c.426-.375.938-.547 1.531-.516.594.023 1.078.25 1.453.688zm0 0"/><path d="M238.434 212.745c.426.375.648.859.672 1.453.031.586-.168 1.09-.594 1.516-.117.168-.711.777-1.781 1.828-1.074 1.043-2.523 2.305-4.344 3.781-1.824 1.469-3.945 2.945-6.359 4.422s-5.023 2.73-7.812 3.75a29.79 29.79 0 0 1-8.656 1.781c-2.98.156-5.977-.383-8.984-1.625-4.187-2.094-7.434-5.18-9.734-9.266-.324-.426-.781-1.094-1.375-2-.594-.914-1.402-1.348-2.422-1.297-.48 0-1.187.152-2.125.453-.937.293-2.148.883-3.625 1.766s-3.242 2.273-5.281 4.156c-2.043 1.875-4.43 4.398-7.156 7.563-.699.805-1.555.965-2.578.484-.969-.488-1.316-1.27-1.047-2.344l4.016-17.719c.113-.531.426-.957.938-1.281s1.031-.406 1.563-.25a1.88 1.88 0 0 1 1.328.938c.289.5.383 1.023.281 1.563l-1.844 7.969c-.062.273.039.492.313.656.27.105.516.047.734-.172 5.957-5.633 10.973-8.316 15.047-8.047 1.719.105 3.172.805 4.359 2.094.906.969 1.707 2.016 2.406 3.141 1.832 3.324 4.41 5.871 7.734 7.641 2.582 1.086 5.188 1.516 7.813 1.297 2.633-.219 5.188-.805 7.656-1.766a40.19 40.19 0 0 0 6.922-3.5c2.145-1.375 4.035-2.734 5.672-4.078 1.645-1.344 2.922-2.469 3.828-3.375l1.453-1.453c.375-.426.859-.641 1.453-.641a2.28 2.28 0 0 1 1.531.563zm0 0"/><path d="M293.896 209.917c.438.43.656.938.656 1.531s-.219 1.078-.656 1.453c-3.43 3.438-7.078 6.164-10.953 8.172-3.867 2.012-7.73 3.449-11.594 4.313-3.867.855-7.531 1.246-11 1.172-3.461-.082-6.477-.5-9.047-1.25-.375-.113-.672.016-.891.391-.699 1.617-1.762 2.906-3.187 3.875-1.418.969-3.012 1.48-4.781 1.531a9.62 9.62 0 0 1-4.906-1.297c-2.043-.957-3.488-2.457-4.344-4.5-.863-2.039-.945-4.133-.25-6.281.48-1.883 1.309-3.672 2.484-5.359 1.188-1.687 2.531-3.066 4.031-4.141 1.508-1.082 2.93-1.625 4.266-1.625h.094a1.95 1.95 0 0 1 1.484.656c.406.43.609.938.609 1.531 0 .531-.219 1-.656 1.406-.43.398-.937.594-1.531.594-.48 0-1.187.383-2.125 1.141-.937.75-1.852 1.73-2.734 2.938s-1.516 2.512-1.891 3.906c-.437 1.18-.418 2.344.063 3.5.488 1.156 1.297 1.977 2.422 2.453.969.75 2.039 1.059 3.219.922a4.25 4.25 0 0 0 2.906-1.562c.27-.32.566-.738.891-1.25s.238-.926-.25-1.25c-1.5-.969-2.437-2.336-2.812-4.109s-.078-3.406.891-4.906c1.281-2.207 2.457-3.441 3.531-3.703 1.07-.27 1.988-.191 2.75.234 1.07.594 1.738 1.766 2 3.516.27 1.742.242 3.605-.078 5.594-.105.48.004.949.328 1.406s.723.742 1.203.844c4.508.75 8.977.777 13.406.078a42.55 42.55 0 0 0 12.641-4.062c4-2.008 7.613-4.629 10.844-7.859.375-.426.852-.641 1.438-.641.594 0 1.102.215 1.531.641zm-45.578 9.109c.219-1.289.273-2.609.172-3.953-.062.168-.148.32-.25.453a5.79 5.79 0 0 0-.328.438c-.312.48-.445 1.016-.391 1.609a1.99 1.99 0 0 0 .797 1.453zm0 0"/><path d="M360.254 211.605a2.18 2.18 0 0 1 .563 1.453 2.09 2.09 0 0 1-.641 1.531 45.17 45.17 0 0 1-9.344 7.047 64.71 64.71 0 0 1-10.672 4.875c-3.676 1.289-7.25 2.246-10.719 2.859-3.461.617-6.609.922-9.453.922-3.062.168-6.016-.395-8.859-1.687-1.937-1.125-3.242-2.359-3.906-3.703s-.949-2.723-.844-4.141c.102-1.426.41-2.77.922-4.031s1.004-2.348 1.484-3.266c.113-.219.063-.379-.156-.484-.211-.102-.586-.02-1.125.25-2.949 1.605-6.117 2.328-9.5 2.172-1.5.055-2.98-.242-4.437-.891-.531.168-1.07.117-1.609-.156-.855-.426-1.227-1.125-1.125-2.094a8.49 8.49 0 0 1-1.687-3.312c-.645-2.195-.594-4.367.156-6.516s2.066-3.914 3.953-5.312c2.25-1.344 4.02-1.398 5.313-.172.156.168.352.453.594.859.25.398.398 1.027.453 1.891.051.855-.125 2.063-.531 3.625-.398 1.555-1.156 3.59-2.281 6.109-.117.219-.039.574.234 1.063.27.48.594.719.969.719a17.45 17.45 0 0 0 8.781-2.344 17.63 17.63 0 0 1 2.891-1.203c1.02-.32 2.094-.055 3.219.797 1.133.867 1.508 1.93 1.125 3.188a23.63 23.63 0 0 1-1.437 3.672c-1.242 2.523-1.887 4.496-1.937 5.922-.055 1.418.832 2.664 2.656 3.734 1.02.594 2.75.961 5.188 1.094 2.445.137 5.297-.051 8.547-.562s6.672-1.344 10.266-2.5a61.04 61.04 0 0 0 10.547-4.547c3.438-1.883 6.551-4.195 9.344-6.937a2.24 2.24 0 0 1 1.531-.562c.594 0 1.102.215 1.531.641zm-67.172-4.422a33.47 33.47 0 0 0 2.266-6.359c-1.992 1.719-2.746 3.84-2.266 6.359zM65.576 159.857c0 3.586-.695 6.918-2.078 10s-3.355 5.781-5.906 8.094c-2.543 2.313-5.531 4.117-8.969 5.406s-7.23 1.938-11.375 1.938-7.953-.648-11.422-1.937c-3.461-1.289-6.449-3.094-8.969-5.406-2.512-2.312-4.453-5.008-5.828-8.094-1.367-3.082-2.047-6.414-2.047-10 0-3.57.68-6.898 2.047-9.984 1.375-3.094 3.316-5.789 5.828-8.094 2.52-2.312 5.508-4.113 8.969-5.406 3.469-1.301 7.273-1.953 11.422-1.953s7.938.652 11.375 1.953c3.438 1.293 6.426 3.094 8.969 5.406a24.06 24.06 0 0 1 5.906 8.094c1.383 3.086 2.078 6.414 2.078 9.984zm-7.766 0c0-3.437-.887-6.508-2.656-9.219-1.762-2.707-4.184-4.848-7.266-6.422-3.086-1.582-6.633-2.375-10.641-2.375-4.055 0-7.621.793-10.703 2.375-3.086 1.574-5.484 3.715-7.203 6.422s-2.578 5.781-2.578 9.219.859 6.512 2.578 9.219 4.117 4.855 7.203 6.438c3.082 1.574 6.648 2.359 10.703 2.359 4.008 0 7.555-.785 10.641-2.359 3.082-1.582 5.504-3.738 7.266-6.469 1.77-2.727 2.656-5.789 2.656-9.187zm0 0"/><path d="M130.652 135.138l-22.187 29.594v19.859h-7.625v-19.437l-23.61-30.016h10.25l17.313 22.953 16.531-22.953zm16.672 34.266c2.539 2.875 5.223 5.105 8.047 6.688 2.832 1.574 6.273 2.359 10.328 2.359 2.164 0 4.27-.281 6.313-.844 2.051-.57 3.734-1.422 5.047-2.547 1.32-1.133 1.984-2.57 1.984-4.312 0-2.352-1.309-4-3.922-4.937-2.617-.945-6.297-1.754-11.047-2.422-3.918-.508-7.312-1.352-10.187-2.531-2.867-1.176-5.09-2.742-6.672-4.703-1.574-1.957-2.359-4.395-2.359-7.312 0-3.02.914-5.598 2.75-7.734 1.832-2.145 4.316-3.797 7.453-4.953s6.609-1.734 10.422-1.734c4.664 0 8.719.758 12.156 2.266s6.145 3.656 8.125 6.438l-5.156 5.5c-1.699-2.164-3.836-3.93-6.406-5.297-2.562-1.363-5.543-2.047-8.937-2.047-3.48 0-6.398.605-8.75 1.813-2.355 1.199-3.531 2.883-3.531 5.047 0 1.742.57 3.117 1.719 4.125 1.156 1.012 2.758 1.805 4.813 2.375 2.051.563 4.461 1.031 7.234 1.406a85.16 85.16 0 0 1 7.594 1.422c2.426.563 4.602 1.34 6.531 2.328 1.938.992 3.469 2.262 4.594 3.813 1.133 1.555 1.703 3.508 1.703 5.859 0 3.211-.887 6.008-2.656 8.391-1.762 2.375-4.277 4.211-7.547 5.5s-7.121 1.938-11.547 1.938c-4.762 0-9.062-.75-12.906-2.25-3.836-1.508-7.215-3.961-10.141-7.359zm70.645 15.187v-42.109h-17.375v-7.344h42.891v7.344H225.61v42.109zm42.385-49.453h38.297v7.344h-30.656v13.063h26.781v7.359h-26.781v14.344h30.656v7.344h-38.297zm101.751 15.328c0 2.262-.484 4.371-1.453 6.328-.969 1.949-2.277 3.668-3.922 5.156a15.8 15.8 0 0 1-5.719 3.281l13.703 19.438-9.469-.078-12.781-18.297h-15.406v18.297h-7.641v-49.453h26.719c2.82 0 5.445.664 7.875 1.984a15.73 15.73 0 0 1 5.859 5.438c1.488 2.305 2.234 4.938 2.234 7.906zm-17.812-7.984h-17.234v16.469h17.797c1.695 0 3.238-.391 4.625-1.172 1.395-.781 2.504-1.816 3.328-3.109s1.234-2.691 1.234-4.203c0-1.551-.449-2.926-1.344-4.125-.898-1.207-2.086-2.148-3.562-2.828-1.48-.687-3.094-1.031-4.844-1.031zm0 0"/></svg>